<svg width="129" height="26" viewBox="0 0 129 26" fill="none" xmlns="http://www.w3.org/2000/svg">
<g clip-path="url(#clip0_2_170)">
<path fill-rule="evenodd" clip-rule="evenodd" d="M43.8326 1.01075C45.1844 -0.336916 47.3762 -0.336916 48.7281 1.01075L67.4583 19.6835C68.8102 21.0311 68.8102 23.2162 67.4583 24.5638C66.1064 25.9115 63.9147 25.9115 62.5628 24.5638L43.8326 5.89108C42.4808 4.54341 42.4808 2.35841 43.8326 1.01075Z" fill="#F4EBFF"/>
<path fill-rule="evenodd" clip-rule="evenodd" d="M67.4583 1.01075C68.8102 2.35841 68.8102 4.54341 67.4583 5.89108L48.7281 24.5638C47.3762 25.9115 45.1844 25.9115 43.8326 24.5638C42.4808 23.2161 42.4808 21.0311 43.8326 19.6835L62.5628 1.01075C63.9147 -0.336916 66.1064 -0.336916 67.4583 1.01075Z" fill="#F4EBFF"/>
<path fill-rule="evenodd" clip-rule="evenodd" d="M80.4363 0.203857C82.3477 0.203857 83.8978 1.74888 83.8978 3.65477V22.5166C83.8978 24.4225 82.3477 25.9675 80.4363 25.9675C78.5244 25.9675 76.9747 24.4225 76.9747 22.5166V3.65477C76.9747 1.74888 78.5244 0.203857 80.4363 0.203857Z" fill="#F4EBFF"/>
<path fill-rule="evenodd" clip-rule="evenodd" d="M83.0888 2.70687C83.0888 4.0906 81.9636 5.21233 80.5757 5.21233H75.6205C74.2325 5.21233 73.1073 4.0906 73.1073 2.70687C73.1073 1.32315 74.2325 0.201416 75.6205 0.201416H80.5757C81.9636 0.201416 83.0888 1.32315 83.0888 2.70687Z" fill="#F4EBFF"/>
<path fill-rule="evenodd" clip-rule="evenodd" d="M32.7531 12.8813C32.7531 9.21309 29.8329 6.23945 26.2306 6.23945V0.0939941C33.166 0.0939941 38.7882 5.81905 38.7882 12.8813C38.7882 19.9435 33.166 25.6685 26.2306 25.6685H12.2339V19.5231H26.2306C29.8329 19.5231 32.7531 16.5494 32.7531 12.8813Z" fill="#F4EBFF"/>
<path fill-rule="evenodd" clip-rule="evenodd" d="M5.98671 12.8813C5.98671 16.5494 8.75533 19.5231 12.3288 19.5231V25.6685C5.44899 25.6685 -6.19303e-07 19.9435 0 12.8813C6.19298e-07 5.81905 5.57716 0.0939932 12.4569 0.0939941L26.3172 0.0939951V6.23945H12.4569C8.88355 6.23945 5.98671 9.21309 5.98671 12.8813Z" fill="#F4EBFF"/>
<path fill-rule="evenodd" clip-rule="evenodd" d="M122.21 12.8813C122.21 9.21309 119.221 6.23945 115.606 6.23945V0.0939941C122.566 0.0939941 128.267 5.81905 128.267 12.8813C128.267 19.9435 122.624 25.6685 115.664 25.6685H101.76V19.5231H115.664C119.28 19.5231 122.21 16.5494 122.21 12.8813Z" fill="#F4EBFF"/>
<path fill-rule="evenodd" clip-rule="evenodd" d="M95.4327 12.8813C95.4327 16.5494 98.3139 19.5231 101.868 19.5231V25.6685C95.0254 25.6685 89.4784 19.9435 89.4784 12.8813C89.4784 5.81905 95.0254 0.0939937 101.868 0.0939941L115.701 0.0939951V6.23945H101.868C98.3139 6.23945 95.4327 9.21309 95.4327 12.8813Z" fill="#F4EBFF"/>
</g>
<defs>
<clipPath id="clip0_2_170">
<rect width="128.267" height="26" fill="white"/>
</clipPath>
</defs>
</svg>
