<svg width="178" height="36" viewBox="0 0 178 36" fill="none" xmlns="http://www.w3.org/2000/svg">
<g clip-path="url(#clip0_2_39)">
<path fill-rule="evenodd" clip-rule="evenodd" d="M60.6912 1.3995C62.5629 -0.466499 65.5977 -0.466499 67.4695 1.3995L93.4037 27.254C95.2755 29.12 95.2755 32.1454 93.4037 34.0114C91.5318 35.8774 88.4972 35.8774 86.6253 34.0114L60.6912 8.15688C58.8195 6.29087 58.8195 3.26549 60.6912 1.3995Z" fill="#321158"/>
<path fill-rule="evenodd" clip-rule="evenodd" d="M93.4037 1.3995C95.2755 3.26549 95.2755 6.29087 93.4037 8.15688L67.4695 34.0114C65.5976 35.8774 62.5629 35.8774 60.6912 34.0114C58.8195 32.1454 58.8195 29.12 60.6912 27.254L86.6253 1.3995C88.4972 -0.466499 91.5318 -0.466499 93.4037 1.3995Z" fill="#321158"/>
<path fill-rule="evenodd" clip-rule="evenodd" d="M111.373 0.282471C114.02 0.282471 116.166 2.42173 116.166 5.06065V31.177C116.166 33.8159 114.02 35.9552 111.373 35.9552C108.726 35.9552 106.58 33.8159 106.58 31.177V5.06065C106.58 2.42173 108.726 0.282471 111.373 0.282471Z" fill="#321158"/>
<path fill-rule="evenodd" clip-rule="evenodd" d="M115.046 3.7479C115.046 5.66383 113.488 7.21699 111.566 7.21699H104.705C102.784 7.21699 101.226 5.66383 101.226 3.7479C101.226 1.83197 102.784 0.278809 104.705 0.278809H111.566C113.488 0.278809 115.046 1.83197 115.046 3.7479Z" fill="#321158"/>
<path fill-rule="evenodd" clip-rule="evenodd" d="M45.3507 17.8353C45.3507 12.7563 41.3073 8.63897 36.3195 8.63897V0.129883C45.9224 0.129883 53.707 8.05689 53.707 17.8353C53.707 27.6138 45.9224 35.5408 36.3195 35.5408H16.9395V27.0317H36.3195C41.3073 27.0317 45.3507 22.9143 45.3507 17.8353Z" fill="#321158"/>
<path fill-rule="evenodd" clip-rule="evenodd" d="M8.28929 17.8353C8.28929 22.9143 12.1228 27.0317 17.0706 27.0317V35.5408C7.54475 35.5408 -8.57496e-07 27.6138 0 17.8353C8.5749e-07 8.05688 7.72222 0.129882 17.2481 0.129883L36.4392 0.129884V8.63897H17.2481C12.3003 8.63897 8.28929 12.7563 8.28929 17.8353Z" fill="#321158"/>
<path fill-rule="evenodd" clip-rule="evenodd" d="M169.214 17.8353C169.214 12.7563 165.075 8.63897 160.07 8.63897V0.129883C169.707 0.129883 177.6 8.05689 177.6 17.8353C177.6 27.6138 169.788 35.5408 160.151 35.5408H140.898V27.0317H160.151C165.156 27.0317 169.214 22.9143 169.214 17.8353Z" fill="#321158"/>
<path fill-rule="evenodd" clip-rule="evenodd" d="M132.138 17.8353C132.138 22.9143 136.127 27.0317 141.049 27.0317V35.5408C131.574 35.5408 123.893 27.6138 123.893 17.8353C123.893 8.05688 131.574 0.129882 141.049 0.129883L160.201 0.129884V8.63897H141.049C136.127 8.63897 132.138 12.7563 132.138 17.8353Z" fill="#321158"/>
</g>
<defs>
<clipPath id="clip0_2_39">
<rect width="177.6" height="36" fill="white"/>
</clipPath>
</defs>
</svg>
